# xmcd CD database file
#
# Track frame offsets:
#	150
#	13365
#	24838
#	34554
#	49537
#	55108
#	66045
#	75484
#	87320
#	98418
#	110632
#	121626
#	136725
#	147241
#	158385
#
# Disc length: 2279 seconds
#
# Revision: 0
# Processed by: cddbd v1.5.2PL0 Copyright (c) Steve Scherf et al.
# Submitted via: CDex 1.70beta2
#
DISCID=a808e50f
DTITLE=Various Artist - The Country Box [CD3)
DYEAR=1900
DGENRE=Country
TTITLE0=Lynn Anderson - Rose Garden
TTITLE1=Freddy Fender - Before The Next Teardrop Falls
TTITLE2=Ned Miller - From A Jack To A King
TTITLE3=Porter Wagoner - The Cold Hard Facts Of Life
TTITLE4=Narvel Felts - Rock Of Ages
TTITLE5=Wanda Jackson - Sweet Nothin's
TTITLE6=Skeeter Davis - Turn Your Radio On
TTITLE7=Del Reeves - Girl On The Billboard
TTITLE8=Don Gibson - Oh Lonesome Me
TTITLE9=Jean Shepherd - Then He Touched me
TTITLE10=Jimmy Dean - Little Black Book
TTITLE11=Lee Greenwood - Amen
TTITLE12=Johnny Russell - Act Naturally
TTITLE13=Connie Smith - Nobody but a fool would love you
TTITLE14=Charlie Rich - The Most Beautiful Girl
EXTD=
EXTT0=
EXTT1=
EXTT2=
EXTT3=
EXTT4=
EXTT5=
EXTT6=
EXTT7=
EXTT8=
EXTT9=
EXTT10=
EXTT11=
EXTT12=
EXTT13=
EXTT14=
PLAYORDER=
